<svg width="144" height="151" viewBox="0 0 144 151" fill="none" xmlns="http://www.w3.org/2000/svg">
<g clip-path="url(#clip0_15_80)">
<path d="M121.794 15.2101C124.234 15.2101 125.967 15.7506 126.994 16.8316C128.034 17.871 128.522 19.7524 128.522 22.3197V51.4232C128.522 59.9602 126.692 66.2936 123.031 70.4235C119.37 74.5535 113.744 76.6323 106.152 76.66H81.1192C78.5539 76.66 76.7235 76.1161 75.628 75.0281C74.5325 73.9402 73.9917 72.1143 74.0056 69.5504V29.4293C74.0056 26.4566 72.8512 24.9598 70.5528 24.9598C69.8555 24.9111 69.1569 25.0345 68.5186 25.319C67.8802 25.6036 67.3216 26.0406 66.892 26.5917V82.7198H105.549C107.171 82.7198 107.993 83.4577 107.993 84.9545V90.2347C107.993 91.5859 107.171 92.3135 105.549 92.3135H66.892V143.328C66.892 145.892 66.3824 147.721 65.3632 148.816C64.344 149.911 62.6107 150.451 60.1632 150.437H19.104C16.6635 150.437 14.9301 149.897 13.904 148.816C12.8779 147.735 12.3683 145.905 12.3752 143.328V38.3786C12.4841 35.878 12.2105 33.3753 11.564 30.9572C10.9753 29.3231 9.99721 27.8569 8.71438 26.6852C6.54737 24.7763 4.23506 23.0387 1.79838 21.4882C1.47175 21.3103 1.20132 21.0448 1.01757 20.7216C0.833819 20.3984 0.744046 20.0303 0.758381 19.6588V17.2162C0.758381 15.865 1.56958 15.1374 3.20238 15.1374L121.794 15.2101Z" fill="white"/>
<path d="M121.794 15.2101C124.234 15.2101 125.967 15.7506 126.994 16.8316C128.034 17.871 128.522 19.7524 128.522 22.3197V51.4232C128.522 59.9602 126.692 66.2936 123.031 70.4235C119.37 74.5535 113.744 76.6323 106.152 76.66H81.1192C78.5539 76.66 76.7235 76.1161 75.628 75.0281C74.5325 73.9402 73.9917 72.1143 74.0056 69.5504V29.4293C74.0056 26.4566 72.8512 24.9598 70.5528 24.9598C69.8555 24.9111 69.1569 25.0345 68.5186 25.319C67.8802 25.6036 67.3216 26.0406 66.892 26.5917V82.7198H105.549C107.171 82.7198 107.993 83.4577 107.993 84.9545V90.2347C107.993 91.5859 107.171 92.3135 105.549 92.3135H66.892V143.328C66.892 145.892 66.3824 147.721 65.3632 148.816C64.344 149.911 62.6107 150.451 60.1632 150.437H19.104C16.6635 150.437 14.9301 149.897 13.904 148.816C12.8779 147.735 12.3683 145.905 12.3752 143.328V38.3786C12.4841 35.878 12.2105 33.3753 11.564 30.9572C10.9753 29.3231 9.99721 27.8569 8.71438 26.6852C6.54737 24.7763 4.23506 23.0387 1.79838 21.4882C1.47175 21.3103 1.20132 21.0448 1.01757 20.7216C0.833819 20.3984 0.744046 20.0303 0.758381 19.6588V17.2162C0.758381 15.865 1.56958 15.1374 3.20238 15.1374L121.794 15.2101Z" fill="#F8A145"/>
<path d="M129.105 7.90312C131.552 7.90312 133.286 8.44361 134.305 9.5246C135.345 10.564 135.823 12.4453 135.823 15.0127V44.1161C135.823 52.6601 133.993 58.997 130.332 63.1269C126.671 67.2568 121.045 69.3357 113.453 69.3634H88.4304C85.8581 69.3634 84.0277 68.8229 82.9392 67.7419C81.8992 66.7025 81.3168 64.8315 81.3168 62.2538V22.1326C81.3168 19.1461 80.1659 17.6528 77.864 17.6528C77.1669 17.6059 76.469 17.7301 75.8309 18.0145C75.1928 18.2989 74.634 18.735 74.2032 19.2846V75.4127H112.829C114.451 75.4127 115.262 76.1611 115.262 77.6475V82.9277C115.262 84.2893 114.451 85.0065 112.829 85.0065H74.2032V136.021C74.2032 138.598 73.6936 140.417 72.6744 141.509C71.6552 142.6 69.9288 143.13 67.4744 143.13H26.4048C23.9712 143.13 22.2379 142.59 21.2048 141.509C20.1648 140.417 19.676 138.598 19.676 136.021V31.0715C19.7849 28.5709 19.5113 26.0683 18.8648 23.6502C18.2694 22.0224 17.2922 20.561 16.0152 19.3886C13.8486 17.4791 11.5363 15.7415 9.09919 14.1915C8.77256 14.0137 8.50213 13.7482 8.31838 13.425C8.13462 13.1018 8.04486 12.7337 8.05919 12.3622V9.91958C8.05919 8.56835 8.8704 7.87541 10.4928 7.84076L129.105 7.90312Z" fill="#F07900"/>
<path d="M136.416 0.596082C138.857 0.596082 140.59 1.13657 141.616 2.21756C142.642 3.29854 143.148 5.1279 143.134 7.70563V36.8091C143.134 45.3461 141.304 51.6796 137.643 55.8095C133.982 59.9394 128.356 62.0182 120.764 62.0459H95.7416C93.1624 62.0459 91.332 61.5054 90.2504 60.4244C89.1688 59.3435 88.628 57.5141 88.628 54.9364V14.8256C88.628 11.846 87.4736 10.3561 85.1648 10.3561C84.4688 10.3098 83.772 10.4332 83.1343 10.7157C82.4966 10.9981 81.9371 11.4312 81.504 11.9776V68.1057H120.109C121.731 68.1057 122.542 68.8541 122.542 70.3404V75.6206C122.542 76.9822 121.731 77.6994 120.109 77.6994H81.504V128.714C81.504 131.291 80.9979 133.121 79.9856 134.202C78.9733 135.283 77.24 135.823 74.7856 135.823H33.7056C31.272 135.823 29.5456 135.283 28.5056 134.202C27.4656 133.121 26.9768 131.291 26.9768 128.714V23.7645C27.085 21.2639 26.8115 18.7614 26.1656 16.3431C25.5702 14.7154 24.593 13.254 23.316 12.0816C21.1473 10.1746 18.8352 8.43716 16.4 6.88451C16.0742 6.70573 15.8044 6.44003 15.6208 6.11703C15.4371 5.79403 15.3469 5.42641 15.36 5.05515V2.63332C15.36 1.2717 16.1712 0.554504 17.804 0.554504L136.416 0.596082Z" fill="white"/>
</g>
<defs>
<clipPath id="clip0_15_80">
<rect width="142.324" height="149.768" fill="white" transform="translate(0.799988 0.596069)"/>
</clipPath>
</defs>
</svg>
