<svg width="200" height="55" viewBox="0 0 200 55" fill="none" xmlns="http://www.w3.org/2000/svg">
<path d="M18.24 24.6109C14.5707 25.2936 11.4987 25.2723 9.02401 24.5469C6.59201 23.8216 4.69334 22.6909 3.32801 21.1549C1.96267 19.6189 1.10934 17.8483 0.768008 15.8429C0.426675 13.7949 0.554675 11.7896 1.15201 9.82695C1.79201 7.86428 2.85867 6.09361 4.35201 4.51495C5.84534 2.89361 7.74401 1.76295 10.048 1.12295C12.5653 0.397614 15.0187 0.205613 17.408 0.546947C19.7973 0.845613 22.1227 1.42161 24.384 2.27494C26.6453 3.12828 28.8213 4.13095 30.912 5.28295C33.0027 6.43495 35.008 7.48028 36.928 8.41895C38.848 9.35761 40.6613 10.0829 42.368 10.5949C44.1173 11.1069 45.7387 11.1496 47.232 10.7229C47.36 10.6803 47.488 10.6163 47.616 10.5309C47.872 10.3603 48.0213 10.1256 48.064 9.82695V9.69895C48.064 9.61361 48.128 9.52828 48.256 9.44295C48.2987 9.40028 48.384 9.37895 48.512 9.37895H48.64C48.7253 9.42161 48.8107 9.46428 48.896 9.50695C48.9813 9.54961 49.0667 9.63495 49.152 9.76295C49.408 10.4029 49.4933 11.0216 49.408 11.6189C49.3227 12.1309 49.088 12.6429 48.704 13.1549C48.3627 13.6669 47.7013 14.0723 46.72 14.3709C45.2267 14.7976 43.6907 14.9683 42.112 14.8829C40.5333 14.7549 38.9333 14.4989 37.312 14.1149C35.6907 13.6883 34.0693 13.1549 32.448 12.5149C30.8693 11.8323 29.3547 11.1709 27.904 10.5309C27.8613 11.6829 27.7333 12.8349 27.52 13.9869C27.3493 15.1389 27.136 16.2696 26.88 17.3789C26.752 17.9336 26.624 18.4883 26.496 19.0429C26.368 19.5549 26.2187 20.0883 26.048 20.6429C26.9013 20.7709 27.712 20.9629 28.48 21.2189C29.2907 21.4749 29.9733 21.8376 30.528 22.3069C31.1253 22.7763 31.5733 23.3736 31.872 24.0989C32.1707 24.8243 32.2987 25.6989 32.256 26.7229C32.2133 27.2349 32.128 27.7043 32 28.1309C31.9147 28.4723 31.7867 28.7923 31.616 29.0909C31.4453 29.3469 31.1893 29.4749 30.848 29.4749C30.6347 29.4749 30.4 29.4109 30.144 29.2829C29.9307 29.1549 29.7173 28.8563 29.504 28.3869C29.2053 27.9176 28.672 27.3416 27.904 26.6589C27.136 25.9763 26.0907 25.4003 24.768 24.9309C24.0427 27.4483 23.296 29.9443 22.528 32.4189C21.76 34.8936 21.0987 37.4109 20.544 39.9709C20.4587 40.3123 20.3733 40.7603 20.288 41.3149C20.2027 41.8696 20.16 42.4243 20.16 42.9789C20.16 43.5336 20.2453 44.0243 20.416 44.4509C20.6293 44.9203 20.992 45.2189 21.504 45.3469C21.9733 45.4323 22.3787 45.3469 22.72 45.0909C23.104 44.8776 23.5093 44.8136 23.936 44.8989C24.2773 45.0269 24.4907 45.2829 24.576 45.6669C24.6187 45.8376 24.6187 46.0509 24.576 46.3069C24.448 47.2456 24.1493 48.0776 23.68 48.8029C23.2533 49.5283 22.6987 50.1043 22.016 50.5309C21.3333 51.0003 20.544 51.2989 19.648 51.4269C18.7947 51.5549 17.856 51.4483 16.832 51.1069C15.7227 50.7656 14.8907 50.1896 14.336 49.3789C13.824 48.6109 13.4827 47.6936 13.312 46.6269C13.184 45.6029 13.184 44.4936 13.312 43.2989C13.4827 42.1469 13.696 40.9949 13.952 39.8429C14.5067 37.2829 15.2107 34.7229 16.064 32.1629C16.9173 29.6029 17.7707 27.0429 18.624 24.4829C18.5387 24.5256 18.4747 24.5469 18.432 24.5469C18.3893 24.5469 18.3253 24.5683 18.24 24.6109ZM20.352 7.33095C18.432 6.81895 16.6187 6.62695 14.912 6.75495C13.2053 6.84028 11.712 7.24561 10.432 7.97095C9.19468 8.65361 8.25601 9.63495 7.61601 10.9149C6.97601 12.1949 6.76267 13.7096 6.97601 15.4589C7.10401 16.3976 7.33867 17.1869 7.68001 17.8269C8.02134 18.4669 8.44801 19.0216 8.96001 19.4909C9.47201 19.9176 10.0267 20.2589 10.624 20.5149C11.2213 20.7709 11.8187 20.9629 12.416 21.0909C13.824 21.3896 15.3813 21.4109 17.088 21.1549C17.3013 21.1123 17.5573 21.0696 17.856 21.0269C18.0693 20.9843 18.3467 20.9416 18.688 20.8989C19.0293 20.8563 19.4133 20.7923 19.84 20.7069C20.5227 18.6163 21.0987 16.5043 21.568 14.3709C22.08 12.2376 22.3147 10.1256 22.272 8.03495C21.9307 7.86428 21.5893 7.73628 21.248 7.65095C20.9493 7.52295 20.6507 7.41628 20.352 7.33095ZM49.557 21.4749C49.685 21.4749 49.813 21.4749 49.941 21.4749C50.1117 21.4323 50.2823 21.4109 50.453 21.4109C50.965 21.4109 51.477 21.4749 51.989 21.6029C52.5437 21.6883 53.0557 21.9016 53.525 22.2429C53.9943 22.5416 54.3783 22.9896 54.677 23.5869C54.9757 24.1843 55.125 24.9736 55.125 25.9549C55.125 26.7656 55.0397 27.5763 54.869 28.3869C54.5277 30.0083 54.2077 31.4376 53.909 32.6749C53.6103 33.9123 53.3543 35.0429 53.141 36.0669C52.9703 37.0483 52.821 37.9443 52.693 38.7549C52.6077 39.5229 52.565 40.2696 52.565 40.9949C52.565 41.7629 52.629 42.3176 52.757 42.6589C52.885 43.0429 53.0343 43.3203 53.205 43.4909C53.3757 43.6616 53.5463 43.8109 53.717 43.9389C53.8877 44.0669 53.9943 44.2803 54.037 44.5789C54.037 44.9629 53.7383 45.3469 53.141 45.7309C52.5863 46.1576 51.8397 46.3709 50.901 46.3709C49.9623 46.3709 49.0237 46.0296 48.085 45.3469C47.1463 44.7069 46.5703 43.6189 46.357 42.0829C45.6317 43.1923 44.693 44.1309 43.541 44.8989C42.389 45.7096 40.917 46.1149 39.125 46.1149C37.5037 46.1149 36.181 45.8376 35.157 45.2829C34.1757 44.7283 33.4077 44.0243 32.853 43.1709C32.341 42.3603 31.9783 41.4856 31.765 40.5469C31.5943 39.5656 31.509 38.6483 31.509 37.7949C31.509 37.3256 31.509 36.9203 31.509 36.5789C31.5517 36.1949 31.5943 35.8536 31.637 35.5549C31.6797 35.2136 31.7437 34.9149 31.829 34.6589C32.2557 32.3976 32.8743 30.4349 33.685 28.7709C34.4957 27.1069 35.413 25.7416 36.437 24.6749C37.461 23.5656 38.549 22.7549 39.701 22.2429C40.8957 21.6883 42.069 21.4109 43.221 21.4109C44.1597 21.4109 44.9703 21.5389 45.653 21.7949C46.3357 22.0083 46.9117 22.3069 47.381 22.6909C47.893 23.0749 48.277 23.4803 48.533 23.9069C48.8317 24.3336 49.0663 24.7389 49.237 25.1229C49.2797 24.8243 49.301 24.5683 49.301 24.3549C49.3437 24.1416 49.365 23.9283 49.365 23.7149C49.365 23.2883 49.301 22.9683 49.173 22.7549C49.045 22.5416 48.981 22.3283 48.981 22.1149C48.981 21.9443 49.0663 21.7736 49.237 21.6029C49.3223 21.5603 49.429 21.5176 49.557 21.4749ZM47.701 31.1389C47.7437 30.9256 47.765 30.5416 47.765 29.9869C47.765 29.5603 47.7223 29.0909 47.637 28.5789C47.5517 28.0669 47.4023 27.5976 47.189 27.1709C46.9757 26.7016 46.6983 26.3389 46.357 26.0829C46.0157 25.7843 45.5677 25.6349 45.013 25.6349C44.4157 25.6349 43.6903 25.9123 42.837 26.4669C42.0263 27.0216 41.237 27.8536 40.469 28.9629C39.701 30.0296 39.0397 31.3736 38.485 32.9949C37.9303 34.5736 37.653 36.4083 37.653 38.4989C37.653 39.4803 37.7597 40.2483 37.973 40.8029C38.1863 41.3149 38.421 41.6989 38.677 41.9549C38.9757 42.2536 39.317 42.4456 39.701 42.5309C40.853 42.5309 41.8557 42.1469 42.709 41.3789C43.605 40.6536 44.3517 39.8003 44.949 38.8189C45.589 37.7949 46.0797 36.7923 46.421 35.8109C46.7623 34.7869 46.997 34.0189 47.125 33.5069C47.2103 33.0803 47.2957 32.6749 47.381 32.2909C47.509 31.9069 47.6157 31.5229 47.701 31.1389ZM57.6045 44.8989C56.9218 44.3016 56.4738 43.4696 56.2605 42.4029C56.0472 41.3363 55.9618 40.1629 56.0045 38.8829C56.0898 37.5603 56.2818 36.1949 56.5805 34.7869C56.8792 33.3789 57.1778 32.0349 57.4765 30.7549C57.8178 29.4749 58.1378 28.3229 58.4365 27.2989C58.7352 26.2323 58.9272 25.4216 59.0125 24.8669C59.1832 23.9709 59.2258 23.3523 59.1405 23.0109C59.0552 22.6696 58.9698 22.3283 58.8845 21.9869C58.7992 21.7309 58.8418 21.5176 59.0125 21.3469C59.0978 21.2616 59.2045 21.2189 59.3325 21.2189C59.8445 21.1763 60.4632 21.1763 61.1885 21.2189C61.9138 21.2616 62.5752 21.4749 63.1725 21.8589C63.7698 22.2003 64.2392 22.7763 64.5805 23.5869C64.9218 24.3549 65.0072 25.4429 64.8365 26.8509C65.9458 25.2296 67.1832 23.8429 68.5485 22.6909C69.9565 21.5389 71.4712 21.0056 73.0925 21.0909H73.1565C73.1992 21.0909 73.2418 21.1123 73.2845 21.1549C73.3272 21.1549 73.3912 21.1549 73.4765 21.1549C73.7752 21.2403 74.2232 21.4323 74.8205 21.7309C75.4605 21.9869 76.0152 22.4776 76.4845 23.2029C76.9965 23.9283 77.3378 24.9523 77.5085 26.2749C77.7218 27.5976 77.5938 29.3256 77.1245 31.4589V31.3949C76.5698 33.7843 76.1432 35.7256 75.8445 37.2189C75.5885 38.7123 75.5032 40.0776 75.5885 41.3149C75.5885 41.9123 75.6525 42.3389 75.7805 42.5949C75.9512 42.8936 76.1005 43.1069 76.2285 43.2349C76.3992 43.4056 76.5485 43.5549 76.6765 43.6829C76.8472 43.8536 76.9538 44.0669 76.9965 44.3229C77.0392 44.6216 76.8685 44.9203 76.4845 45.2189C76.1005 45.5603 75.6098 45.7949 75.0125 45.9229C74.4152 46.0936 73.7325 46.1149 72.9645 45.9869C72.2392 45.8589 71.5352 45.4963 70.8525 44.8989C70.1698 44.3016 69.7005 43.4696 69.4445 42.4029C69.2312 41.3789 69.1458 40.2269 69.1885 38.9469C69.2738 37.6669 69.4445 36.3443 69.7005 34.9789C69.9992 33.5709 70.3192 32.2269 70.6605 30.9469C70.7032 30.7336 70.7672 30.3923 70.8525 29.9229C70.9805 29.4109 71.0658 28.8989 71.1085 28.3869C71.1512 27.8749 71.1298 27.4056 71.0445 26.9789C70.9592 26.5096 70.7672 26.2109 70.4685 26.0829C69.9992 25.9123 69.3378 26.1683 68.4845 26.8509C67.6312 27.5336 66.7565 28.5576 65.8605 29.9229C65.0072 31.2456 64.2392 32.8456 63.5565 34.7229C62.8738 36.6003 62.4685 38.6269 62.3405 40.8029V41.3149C62.3832 41.9123 62.4685 42.3389 62.5965 42.5949C62.7245 42.8936 62.8738 43.1069 63.0445 43.2349C63.2152 43.4056 63.3645 43.5549 63.4925 43.6829C63.6632 43.8536 63.7698 44.0669 63.8125 44.3229C63.8552 44.6216 63.6845 44.9203 63.3005 45.2189C62.9165 45.5603 62.4045 45.7949 61.7645 45.9229C61.1672 46.0936 60.4845 46.1149 59.7165 45.9869C58.9912 45.8589 58.2872 45.4963 57.6045 44.8989ZM105.883 8.93095C106.139 10.3816 106.075 12.1736 105.691 14.3069C105.307 16.4403 104.816 18.7229 104.219 21.1549C103.92 22.2643 103.579 23.5229 103.195 24.9309C102.854 26.3389 102.512 27.8109 102.171 29.3469L101.595 31.8429C101.083 34.1469 100.678 36.0456 100.379 37.5389C100.08 38.9896 99.9737 40.3336 100.059 41.5709C100.059 42.1683 100.123 42.5949 100.251 42.8509C100.379 43.1496 100.55 43.3843 100.763 43.5549C100.848 43.6829 100.934 43.7896 101.019 43.8749C101.147 43.9603 101.254 44.0669 101.339 44.1949C101.424 44.3656 101.467 44.4936 101.467 44.5789C101.552 45.0483 101.19 45.4963 100.379 45.9229C99.611 46.3496 98.6937 46.4776 97.627 46.3069C96.7737 46.1789 96.0057 45.7949 95.323 45.1549C94.555 44.5576 94.0643 43.5763 93.851 42.2109C93.1257 43.3203 92.123 44.2803 90.843 45.0909C89.6057 45.9016 88.027 46.2429 86.107 46.1149C84.955 46.0723 83.9737 45.8589 83.163 45.4749C82.3523 45.0909 81.691 44.6216 81.179 44.0669C80.667 43.5549 80.2617 42.9576 79.963 42.2749C79.6643 41.5923 79.451 40.8883 79.323 40.1629C79.0243 38.4989 79.067 36.6643 79.451 34.6589C79.9203 32.1416 80.6243 30.0083 81.563 28.2589C82.5017 26.4669 83.547 25.0376 84.699 23.9709C85.8937 22.9043 87.1523 22.1789 88.475 21.7949C89.7977 21.3683 91.0777 21.2829 92.315 21.5389C93.7657 21.8376 94.8323 22.3496 95.515 23.0749C96.1977 23.8003 96.667 24.5256 96.923 25.2509C97.435 23.2456 97.8617 21.5389 98.203 20.1309C98.587 18.7229 98.907 17.5069 99.163 16.4829C99.419 15.4163 99.611 14.4989 99.739 13.7309C99.867 12.9629 99.9737 12.1949 100.059 11.4269V10.2749C100.059 9.93361 100.016 9.61361 99.931 9.31495C99.8883 9.01628 99.803 8.78161 99.675 8.61095C99.547 8.44028 99.419 8.29095 99.291 8.16294C99.163 7.99228 99.099 7.77895 99.099 7.52295V7.20295C99.099 6.94695 99.1843 6.73361 99.355 6.56295C99.4403 6.39228 99.5897 6.22161 99.803 6.05095C100.059 5.88028 100.4 5.75228 100.827 5.66695C100.955 5.58161 101.254 5.53895 101.723 5.53895H102.171C102.726 5.62428 103.238 5.77361 103.707 5.98695C104.859 6.41361 105.563 7.30961 105.819 8.67495L105.947 8.93095H105.883ZM85.595 35.4269C85.2537 37.1336 85.147 38.4563 85.275 39.3949C85.4457 40.3336 85.6803 41.0376 85.979 41.5069C86.3203 42.0616 86.7683 42.4029 87.323 42.5309C88.5177 42.6589 89.563 42.2963 90.459 41.4429C91.355 40.6323 92.1017 39.6936 92.699 38.6269C93.2963 37.5176 93.7657 36.4509 94.107 35.4269C94.4483 34.3603 94.6617 33.6563 94.747 33.3149L95.259 31.2029C95.3443 30.8189 95.387 30.3283 95.387 29.7309C95.387 29.1336 95.3017 28.5576 95.131 28.0029C95.003 27.4056 94.7683 26.8936 94.427 26.4669C94.0857 25.9976 93.6163 25.7203 93.019 25.6349C92.4217 25.5496 91.7603 25.6989 91.035 26.0829C90.3097 26.4243 89.5843 27.0216 88.859 27.8749C88.1763 28.6856 87.5363 29.7309 86.939 31.0109C86.3843 32.2909 85.9363 33.7629 85.595 35.4269ZM113.737 46.0509C112.244 45.9656 110.964 45.7096 109.897 45.2829C108.83 44.8989 107.934 44.4083 107.209 43.8109C106.526 43.2136 105.972 42.5523 105.545 41.8269C105.161 41.1016 104.862 40.3549 104.649 39.5869C104.18 37.8376 104.137 35.8536 104.521 33.6349C104.862 31.2456 105.545 29.1549 106.569 27.3629C106.996 26.5949 107.508 25.8483 108.105 25.1229C108.745 24.3976 109.492 23.7576 110.345 23.2029C111.241 22.6483 112.244 22.2216 113.353 21.9229C114.462 21.5816 115.721 21.4323 117.129 21.4749C118.238 21.5176 119.262 21.7949 120.201 22.3069C121.182 22.8189 121.929 23.5443 122.441 24.4829C122.996 25.4216 123.23 26.5736 123.145 27.9389C123.102 29.3043 122.633 30.8616 121.737 32.6109C120.926 34.1043 119.966 35.0856 118.857 35.5549C117.748 36.0243 116.638 36.2376 115.529 36.1949C114.42 36.1523 113.46 35.8536 112.649 35.2989C111.838 34.7443 111.348 34.2323 111.177 33.7629C110.964 34.5309 110.814 35.3843 110.729 36.3229C110.644 37.2189 110.708 38.0936 110.921 38.9469C111.134 39.7576 111.54 40.4616 112.137 41.0589C112.734 41.6563 113.63 42.0189 114.825 42.1469C115.934 42.2749 116.937 42.1469 117.833 41.7629C118.729 41.4216 119.518 41.0163 120.201 40.5469C120.884 40.0776 121.438 39.6509 121.865 39.2669C122.292 38.8829 122.59 38.7336 122.761 38.8189C123.102 39.0323 123.23 39.3096 123.145 39.6509C123.102 39.8216 123.038 40.0349 122.953 40.2909C122.356 41.9123 121.524 43.1069 120.457 43.8749C119.433 44.6856 118.43 45.2616 117.449 45.6029C116.297 45.9869 115.06 46.1363 113.737 46.0509ZM118.025 25.0589C117.172 24.8883 116.382 25.0376 115.657 25.5069C114.974 25.9336 114.356 26.5523 113.801 27.3629C113.246 28.1309 112.777 29.0056 112.393 29.9869C112.009 30.9256 111.71 31.7789 111.497 32.5469H111.625C112.734 32.6323 113.865 32.4189 115.017 31.9069C116.212 31.3523 117.172 30.3709 117.897 28.9629C118.324 28.1096 118.558 27.4483 118.601 26.9789C118.686 26.4669 118.686 26.0616 118.601 25.7629C118.473 25.4216 118.281 25.1869 118.025 25.0589ZM146.394 28.5149C146.095 29.9229 145.583 31.0963 144.858 32.0349C144.133 32.9736 143.301 33.6776 142.362 34.1469C141.466 34.6163 140.485 34.8936 139.418 34.9789C138.394 35.0216 137.413 34.8723 136.474 34.5309C136.346 34.4883 136.197 34.4029 136.026 34.2749C135.685 34.0189 135.535 33.7203 135.578 33.3789C135.578 33.2083 135.621 33.0589 135.706 32.9309C135.834 32.8029 135.941 32.6963 136.026 32.6109C136.154 32.5256 136.303 32.4616 136.474 32.4189C137.071 32.2056 137.69 31.8003 138.33 31.2029C139.013 30.6056 139.503 29.9443 139.802 29.2189C140.101 28.5363 140.25 27.9816 140.25 27.5549C140.293 27.1283 140.229 26.8083 140.058 26.5949C139.887 26.3389 139.653 26.1896 139.354 26.1469C139.098 26.0616 138.821 26.0403 138.522 26.0829C137.925 26.2109 137.199 26.6376 136.346 27.3629C135.493 28.0883 134.661 29.0909 133.85 30.3709C133.082 31.6509 132.399 33.1656 131.802 34.9149C131.205 36.6643 130.842 38.6269 130.714 40.8029V41.3149C130.714 41.9123 130.778 42.3389 130.906 42.5949C131.077 42.8936 131.247 43.1069 131.418 43.2349C131.589 43.4056 131.738 43.5549 131.866 43.6829C132.037 43.8536 132.143 44.0669 132.186 44.3229C132.229 44.6216 132.058 44.9203 131.674 45.2189C131.29 45.5603 130.778 45.7949 130.138 45.9229C129.541 46.0936 128.858 46.1149 128.09 45.9869C127.365 45.8589 126.661 45.4963 125.978 44.8989C125.295 44.3016 124.826 43.4696 124.57 42.4029C124.357 41.3363 124.293 40.1629 124.378 38.8829C124.463 37.5603 124.634 36.1949 124.89 34.7869C125.189 33.3789 125.509 32.0349 125.85 30.7549C126.191 29.4749 126.511 28.3229 126.81 27.2989C127.109 26.2323 127.301 25.4216 127.386 24.8669C127.557 23.9709 127.599 23.3523 127.514 23.0109C127.429 22.6696 127.322 22.3283 127.194 21.9869C127.109 21.8163 127.087 21.6883 127.13 21.6029C127.215 21.5176 127.301 21.4323 127.386 21.3469C127.471 21.2616 127.578 21.2189 127.706 21.2189C128.218 21.1763 128.815 21.1763 129.498 21.2189C130.223 21.2616 130.885 21.4536 131.482 21.7949C132.122 22.1363 132.613 22.7123 132.954 23.5229C133.295 24.2909 133.381 25.3789 133.21 26.7869C134.277 25.1656 135.493 23.7789 136.858 22.6269C138.266 21.4323 139.802 20.9203 141.466 21.0909C142.661 21.2189 143.663 21.5603 144.474 22.1149C145.157 22.5843 145.733 23.3309 146.202 24.3549C146.714 25.3789 146.778 26.7656 146.394 28.5149ZM150.72 26.6589C150.762 26.5736 150.912 26.1469 151.168 25.3789C151.424 24.6109 151.765 23.6509 152.192 22.4989C152.618 21.3469 153.109 20.0883 153.664 18.7229C154.261 17.3576 154.901 16.0563 155.584 14.8189C156.309 13.5816 157.056 12.4936 157.824 11.5549C158.592 10.6163 159.381 9.97628 160.192 9.63495C160.533 9.46428 160.874 9.37895 161.216 9.37895C162.154 9.33628 162.901 9.63495 163.456 10.2749C164.01 10.9149 164.373 11.7683 164.544 12.8349C164.714 13.9016 164.693 15.1389 164.48 16.5469C164.266 17.9123 163.861 19.3416 163.264 20.8349C162.666 22.2856 161.877 23.7363 160.896 25.1869C159.914 26.6376 158.741 27.9603 157.376 29.1549C158.442 29.4536 159.594 29.4749 160.832 29.2189C162.069 28.9203 163.221 28.5576 164.288 28.1309C165.354 27.7043 166.272 27.3416 167.04 27.0429C167.85 26.7443 168.384 26.7229 168.64 26.9789C168.853 27.2349 168.938 27.5123 168.896 27.8109C168.896 28.0669 168.832 28.3016 168.704 28.5149C168.533 28.7709 168.341 29.0269 168.128 29.2829C166.592 30.6483 164.949 31.6083 163.2 32.1629C161.493 32.6749 159.829 32.8243 158.208 32.6109C158.805 33.8483 159.232 35.2776 159.488 36.8989C159.744 38.5203 159.85 40.1629 159.808 41.8269C159.765 43.4909 159.552 45.1123 159.168 46.6909C158.784 48.2696 158.25 49.6563 157.568 50.8509C156.928 52.0456 156.117 52.9629 155.136 53.6029C154.197 54.2856 153.109 54.5416 151.872 54.3709C150.464 54.1576 149.397 53.5176 148.672 52.4509C147.989 51.3843 147.52 50.1043 147.264 48.6109C147.05 47.1603 146.986 45.5816 147.072 43.8749C147.2 42.1683 147.392 40.5683 147.648 39.0749C147.904 37.5389 148.16 36.2376 148.416 35.1709C148.672 34.1043 148.842 33.4429 148.928 33.1869C149.141 32.2909 149.354 31.4589 149.568 30.6909C149.781 29.9229 149.973 29.2403 150.144 28.6429C150.314 27.9603 150.506 27.3203 150.72 26.7229V26.6589ZM157.888 23.2669C157.717 23.7363 157.61 24.1629 157.568 24.5469C158.08 23.7363 158.592 22.8616 159.104 21.9229C159.616 20.9843 160.064 20.0456 160.448 19.1069C160.874 18.1683 161.173 17.2723 161.344 16.4189C161.557 15.5229 161.6 14.7336 161.472 14.0509C161.045 14.8189 160.618 15.6936 160.192 16.6749C159.85 17.5283 159.466 18.5096 159.04 19.6189C158.613 20.7283 158.229 21.9443 157.888 23.2669ZM153.152 46.3069C153.066 47.3736 153.088 48.2483 153.216 48.9309C153.344 49.6136 153.642 49.9763 154.112 50.0189C154.624 50.0189 155.05 49.4429 155.392 48.2909C155.776 47.1389 156.032 45.7309 156.16 44.0669C156.288 42.4029 156.288 40.6536 156.16 38.8189C156.032 36.9416 155.754 35.3203 155.328 33.9549C155.242 34.4243 155.157 34.8509 155.072 35.2349C154.986 35.6189 154.901 35.9816 154.816 36.3229C154.773 36.4083 154.666 36.7923 154.496 37.4749C154.368 38.1576 154.197 38.9896 153.984 39.9709C153.813 40.9523 153.642 41.9976 153.472 43.1069C153.301 44.2589 153.194 45.3256 153.152 46.3069ZM179.445 52.8989C178.378 52.6429 177.589 52.0883 177.077 51.2349C176.565 50.4243 176.202 49.5283 175.989 48.5469C175.818 47.5656 175.754 46.5629 175.797 45.5389C175.882 44.5149 175.968 43.6829 176.053 43.0429C175.242 44.0243 174.346 44.8136 173.365 45.4109C172.426 46.0083 171.36 46.2856 170.165 46.2429H170.037C169.056 46.2003 168.202 46.0296 167.477 45.7309C166.794 45.4323 166.218 45.0696 165.749 44.6429C165.28 44.2589 164.917 43.8109 164.661 43.2989C164.405 42.7869 164.213 42.2963 164.085 41.8269C164 41.3149 163.936 40.8029 163.893 40.2909C163.893 39.7789 163.893 39.3096 163.893 38.8829C164.021 37.6029 164.213 36.2803 164.469 34.9149C164.768 33.5496 165.066 32.2483 165.365 31.0109C165.706 29.7736 166.026 28.6643 166.325 27.6829C166.624 26.7016 166.816 25.9336 166.901 25.3789C167.029 24.4403 167.05 23.8003 166.965 23.4589C166.88 23.1176 166.794 22.7976 166.709 22.4989C166.624 22.2429 166.666 22.0296 166.837 21.8589C166.922 21.7736 167.029 21.7096 167.157 21.6669C167.712 21.6243 168.373 21.6456 169.141 21.7309C169.952 21.7736 170.656 22.0296 171.253 22.4989C171.85 22.9256 172.298 23.6296 172.597 24.6109C172.896 25.5496 172.853 26.8723 172.469 28.5789C172 30.8403 171.594 32.7389 171.253 34.2749C170.912 35.8109 170.634 37.1763 170.421 38.3709C170.25 39.4803 170.229 40.3123 170.357 40.8669C170.485 41.4643 170.656 41.9123 170.869 42.2109C171.082 42.5523 171.381 42.7443 171.765 42.7869C172.448 42.8296 173.088 42.5949 173.685 42.0829C174.282 41.5709 174.837 40.9096 175.349 40.0989C175.861 39.2456 176.309 38.3069 176.693 37.2829C177.12 36.2589 177.482 35.2776 177.781 34.3389C177.909 33.8696 178.037 33.3789 178.165 32.8669C178.293 32.3549 178.442 31.8429 178.613 31.3309C178.698 31.0749 178.762 30.8189 178.805 30.5629C178.848 30.3069 178.912 30.0723 178.997 29.8589V29.7309C179.253 28.7496 179.488 27.8963 179.701 27.1709C179.914 26.4456 180.064 25.8483 180.149 25.3789C180.277 24.4403 180.298 23.8003 180.213 23.4589C180.128 23.1176 180.042 22.7976 179.957 22.4989C179.872 22.2429 179.914 22.0296 180.085 21.8589C180.17 21.7736 180.277 21.7096 180.405 21.6669C180.96 21.6243 181.621 21.6456 182.389 21.7309C183.2 21.7736 183.904 22.0296 184.501 22.4989C185.098 22.9256 185.546 23.6296 185.845 24.6109C186.144 25.5496 186.101 26.8723 185.717 28.5789C185.504 29.4749 185.312 30.3283 185.141 31.1389C185.013 31.9069 184.864 32.6323 184.693 33.3149C184.608 33.8269 184.501 34.3389 184.373 34.8509C184.245 35.3629 184.117 35.9176 183.989 36.5149C183.818 37.2829 183.648 38.0936 183.477 38.9469C183.306 39.8003 183.114 40.6536 182.901 41.5069C182.645 42.7016 182.496 43.7043 182.453 44.5149C182.41 45.3683 182.538 46.0083 182.837 46.4349C183.05 46.7763 183.392 47.0109 183.861 47.1389C184.544 47.2243 185.013 47.1389 185.269 46.8829C185.568 46.6269 185.909 46.5416 186.293 46.6269C186.634 46.7123 186.848 46.9683 186.933 47.3949C186.976 47.5656 186.976 47.7576 186.933 47.9709C186.592 49.7203 186.016 50.9363 185.205 51.6189C184.394 52.3443 183.562 52.8136 182.709 53.0269C181.685 53.2403 180.597 53.1976 179.445 52.8989ZM188.733 45.1549C187.879 44.3869 187.389 43.2563 187.261 41.7629C187.133 40.3123 187.197 38.7336 187.453 37.0269C187.709 35.3203 188.071 33.6136 188.541 31.9069C189.053 30.1576 189.479 28.6429 189.821 27.3629C190.418 25.0589 190.93 23.0749 191.357 21.4109C191.783 19.7043 192.146 18.2109 192.445 16.9309C192.743 15.6083 192.957 14.4776 193.085 13.5389C193.255 12.5576 193.383 11.6403 193.469 10.7869C193.511 10.4456 193.511 10.0616 193.469 9.63495C193.426 9.16561 193.298 8.82428 193.085 8.61095C192.957 8.44028 192.829 8.29095 192.701 8.16294C192.573 7.99228 192.509 7.77895 192.509 7.52295V7.20295C192.509 6.56295 192.85 6.11495 193.533 5.85895C194.215 5.56028 194.813 5.45361 195.325 5.53895C195.794 5.58161 196.263 5.66695 196.733 5.79494C197.202 5.92295 197.65 6.15761 198.077 6.49895L198.269 6.62695C198.823 7.18161 199.186 7.94961 199.357 8.93095C199.527 9.91228 199.549 11.0429 199.421 12.3229C199.293 13.5603 199.058 14.9469 198.717 16.4829C198.418 17.9763 198.055 19.5336 197.629 21.1549L195.581 29.3469C195.495 29.8163 195.41 30.2643 195.325 30.6909C195.239 31.0749 195.154 31.4589 195.069 31.8429C194.514 34.1469 194.087 36.0456 193.789 37.5389C193.533 38.9896 193.426 40.3336 193.469 41.5709C193.511 42.1683 193.597 42.5949 193.725 42.8509C193.853 43.1496 194.002 43.3843 194.173 43.5549C194.301 43.6829 194.407 43.7896 194.493 43.8749C194.621 43.9603 194.727 44.0669 194.813 44.1949C194.898 44.3656 194.941 44.4936 194.941 44.5789C195.026 45.0483 194.663 45.4963 193.853 45.9229C193.042 46.3496 192.103 46.4776 191.037 46.3069C190.269 46.1789 189.501 45.7949 188.733 45.1549Z" fill="white"/>
</svg>
