<svg width="253" height="43" viewBox="0 0 253 43" fill="none" xmlns="http://www.w3.org/2000/svg">
<g clip-path="url(#clip0_584_3950)">
<path d="M16.5594 18.496H11.2429V42.5098H3.45665V18.496H0V12.2037H3.45665V10.6722C3.45665 6.95289 4.5182 4.21808 6.63694 2.4678C8.75567 0.721894 11.9535 -0.100738 16.2304 0.00865483V6.46281C14.3661 6.42781 13.0677 6.7341 12.3351 7.39046C11.6026 8.04681 11.2385 9.23263 11.2385 10.9435V12.2037H16.5551V18.496H16.5594Z" fill="white"/>
<path d="M19.6038 19.1C20.8277 16.7284 22.4902 14.9081 24.5958 13.6304C26.697 12.3527 29.0438 11.7139 31.6407 11.7139C33.9086 11.7139 35.8913 12.1689 37.5889 13.0791C39.2909 13.9892 40.6508 15.14 41.6729 16.5271V12.2039H49.4021V42.51H41.6729V38.0818C40.6859 39.5039 39.3216 40.681 37.5889 41.6086C35.8518 42.5363 33.8515 43.0045 31.5837 43.0045C29.0263 43.0045 26.6926 42.3481 24.5914 41.0354C22.4902 39.7227 20.8277 37.8718 19.5995 35.4827C18.3756 33.0935 17.7615 30.35 17.7615 27.252C17.7615 24.154 18.3712 21.4717 19.5995 19.1044L19.6038 19.1ZM40.5762 22.5744C39.8436 21.2441 38.8567 20.2202 37.6153 19.5114C36.3738 18.8025 35.0359 18.4437 33.6147 18.4437C32.1934 18.4437 30.873 18.7894 29.6667 19.4851C28.4604 20.1765 27.4822 21.1916 26.7321 22.5218C25.982 23.8521 25.6091 25.4317 25.6091 27.252C25.6091 29.0723 25.982 30.6694 26.7321 32.039C27.4822 33.4042 28.4692 34.4544 29.693 35.1851C30.9169 35.9159 32.2241 36.279 33.6147 36.279C35.0052 36.279 36.3738 35.9246 37.6153 35.2114C38.8567 34.5025 39.8436 33.4786 40.5762 32.1484C41.3088 30.8182 41.6729 29.221 41.6729 27.3614C41.6729 25.5017 41.3088 23.9089 40.5762 22.5744Z" fill="white"/>
<path d="M80.7135 15.1882C82.9419 17.4679 84.0561 20.649 84.0561 24.7316V42.5057H76.3795V25.773C76.3795 23.3664 75.7742 21.5154 74.5722 20.2202C73.3659 18.925 71.721 18.2774 69.6373 18.2774C67.5537 18.2774 65.8429 18.925 64.619 20.2202C63.3952 21.5154 62.781 23.3664 62.781 25.773V42.51H55.1045V12.2083H62.781V15.9802C63.8031 14.6675 65.1103 13.6392 66.7027 12.8909C68.2906 12.1427 70.0365 11.7708 71.9403 11.7708C75.5592 11.7708 78.4851 12.9128 80.7135 15.1882Z" fill="white"/>
<path d="M89.8421 19.0999C91.066 16.7283 92.7373 14.908 94.8604 13.6303C96.9792 12.3526 99.3391 11.7137 101.932 11.7137C103.906 11.7137 105.787 12.1425 107.582 13.0002C109.371 13.8578 110.797 14.9955 111.859 16.4176V2.03467H119.645V42.5099H111.859V38.0248C110.907 39.5213 109.573 40.7246 107.858 41.6348C106.138 42.5449 104.147 43 101.883 43C99.326 43 96.9835 42.3436 94.8648 41.0309C92.7461 39.7182 91.0704 37.8673 89.8465 35.4781C88.6227 33.089 88.0085 30.3454 88.0085 27.2475C88.0085 24.1495 88.6183 21.4672 89.8465 19.0999H89.8421ZM110.815 22.5742C110.082 21.244 109.095 20.2201 107.854 19.5112C106.612 18.8023 105.274 18.4435 103.853 18.4435C102.432 18.4435 101.111 18.7892 99.905 19.485C98.6987 20.1763 97.7205 21.1915 96.9704 22.5217C96.2203 23.8519 95.8474 25.4315 95.8474 27.2518C95.8474 29.0721 96.2203 30.6692 96.9704 32.0388C97.7205 33.4041 98.7075 34.4542 99.9313 35.185C101.155 35.9157 102.462 36.2789 103.853 36.2789C105.244 36.2789 106.612 35.9245 107.854 35.2112C109.095 34.5024 110.082 33.4784 110.815 32.1482C111.547 30.818 111.911 29.2209 111.911 27.3612C111.911 25.5015 111.547 23.9088 110.815 22.5742Z" fill="white"/>
<path d="M153.803 29.6542H131.598C131.782 31.8421 132.55 33.5573 133.901 34.7957C135.252 36.034 136.919 36.6553 138.893 36.6553C141.744 36.6553 143.771 35.4345 144.982 32.9885H153.264C152.386 35.9071 150.706 38.305 148.219 40.1822C145.732 42.0593 142.683 43.0001 139.06 43.0001C136.134 43.0001 133.511 42.3525 131.19 41.0573C128.87 39.7621 127.058 37.933 125.76 35.5614C124.461 33.1898 123.812 30.455 123.812 27.357C123.812 24.259 124.452 21.4673 125.733 19.0957C127.014 16.724 128.804 14.9037 131.107 13.626C133.41 12.3483 136.059 11.7095 139.055 11.7095C142.052 11.7095 144.53 12.3308 146.815 13.5691C149.101 14.8075 150.873 16.5709 152.132 18.8462C153.395 21.126 154.023 23.7426 154.023 26.6962C154.023 27.7902 153.948 28.7747 153.803 29.6498V29.6542ZM146.074 24.5128C146.039 22.5437 145.324 20.9685 143.933 19.7826C142.543 18.5968 140.845 18.0061 138.836 18.0061C136.937 18.0061 135.336 18.5793 134.037 19.7301C132.739 20.8766 131.945 22.4737 131.651 24.5171H146.074V24.5128Z" fill="white"/>
<path d="M169.349 13.136C170.937 12.2258 172.758 11.7708 174.806 11.7708V19.8133H172.78C170.367 19.8133 168.547 20.3778 167.323 21.5111C166.099 22.64 165.485 24.6091 165.485 27.4183V42.5144H157.808V12.2083H165.485V16.9122C166.472 15.3063 167.761 14.0505 169.349 13.1403V13.136Z" fill="white"/>
<path d="M194.708 18.496H189.392V42.5098H181.606V18.496H178.149V12.2037H181.606V10.6722C181.606 6.95289 182.667 4.21808 184.786 2.4678C186.905 0.721894 190.102 -0.100738 194.379 0.00865483V6.46281C192.515 6.42781 191.217 6.7341 190.484 7.39046C189.751 8.04681 189.387 9.23263 189.387 10.9435V12.2037H194.704V18.496H194.708Z" fill="white"/>
<path d="M226.564 12.2083V42.51H218.835V38.6812C217.848 39.9939 216.558 41.0266 214.97 41.7705C213.382 42.5143 211.654 42.8907 209.79 42.8907C207.412 42.8907 205.311 42.3918 203.482 41.3854C201.652 40.3834 200.218 38.9044 199.178 36.9572C198.134 35.0056 197.617 32.6821 197.617 29.9823V12.2083H205.293V28.8884C205.293 31.295 205.899 33.146 207.101 34.4412C208.307 35.7364 209.952 36.384 212.035 36.384C214.119 36.384 215.817 35.7364 217.027 34.4412C218.234 33.146 218.835 31.295 218.835 28.8884V12.2083H226.564Z" fill="white"/>
<path d="M240 2.03467V42.5099H232.323V2.03467H240Z" fill="white"/>
</g>
<g clip-path="url(#clip1_584_3950)">
<path d="M248.998 42.996C251.206 42.996 252.996 41.2061 252.996 38.998C252.996 36.79 251.206 35 248.998 35C246.79 35 245 36.79 245 38.998C245 41.2061 246.79 42.996 248.998 42.996Z" fill="#FF7F34"/>
</g>
<defs>
<clipPath id="clip0_584_3950">
<rect width="240" height="43" fill="white"/>
</clipPath>
<clipPath id="clip1_584_3950">
<rect width="8" height="8" fill="white" transform="translate(245 35)"/>
</clipPath>
</defs>
</svg>
