<svg width="269" height="269" viewBox="0 0 269 269" fill="none" xmlns="http://www.w3.org/2000/svg">
<g filter="url(#filter0_d_354_1237)">
<path d="M150.856 88.7834V126.373C150.856 128.856 148.845 130.865 146.364 130.865H109.33V201.214C109.33 205.511 105.846 209 101.544 209H60.7863C56.4842 209 53 205.511 53 201.214V76.8507C53 72.5536 56.4842 69.0645 60.7863 69.0645H101.544C105.846 69.0645 109.33 72.5536 109.33 76.8507V84.2911H146.364C148.845 84.2911 150.856 86.3025 150.856 88.7834Z" fill="white"/>
</g>
<g filter="url(#filter1_d_354_1237)">
<path d="M129.714 124.5H88.954C84.6538 124.5 81.1677 127.986 81.1677 132.286V173.046C81.1677 177.346 84.6538 180.833 88.954 180.833H129.714C134.014 180.833 137.5 177.346 137.5 173.046V132.286C137.5 127.986 134.014 124.5 129.714 124.5Z" fill="white"/>
</g>
<g filter="url(#filter2_d_354_1237)">
<path d="M157.879 96.3325H117.119C112.818 96.3325 109.332 99.8186 109.332 104.119V144.879C109.332 149.179 112.818 152.665 117.119 152.665H157.879C162.179 152.665 165.665 149.179 165.665 144.879V104.119C165.665 99.8186 162.179 96.3325 157.879 96.3325Z" fill="white"/>
</g>
<g filter="url(#filter3_d_354_1237)">
<path d="M221.997 47.7863V88.5438C221.997 92.8434 218.511 96.3301 214.211 96.3301H68.6983C67.6654 96.3301 66.6745 96.7402 65.9456 97.4692L59.6469 103.768C57.1956 106.219 53.0022 104.485 53.0022 101.015V47.7863C53.0022 43.4867 56.4888 40 60.7885 40H214.213C218.513 40 222 43.4867 222 47.7863H221.997Z" fill="url(#paint0_linear_354_1237)"/>
</g>
<defs>
<filter id="filter0_d_354_1237" x="0" y="29.0645" width="197.856" height="239.936" filterUnits="userSpaceOnUse" color-interpolation-filters="sRGB">
<feFlood flood-opacity="0" result="BackgroundImageFix"/>
<feColorMatrix in="SourceAlpha" type="matrix" values="0 0 0 0 0 0 0 0 0 0 0 0 0 0 0 0 0 0 127 0" result="hardAlpha"/>
<feOffset dx="-3" dy="10"/>
<feGaussianBlur stdDeviation="25"/>
<feColorMatrix type="matrix" values="0 0 0 0 0.0862745 0 0 0 0 0.0862745 0 0 0 0 0.113725 0 0 0 0.15 0"/>
<feBlend mode="normal" in2="BackgroundImageFix" result="effect1_dropShadow_354_1237"/>
<feBlend mode="normal" in="SourceGraphic" in2="effect1_dropShadow_354_1237" result="shape"/>
</filter>
<filter id="filter1_d_354_1237" x="28.1677" y="84.5" width="156.333" height="156.333" filterUnits="userSpaceOnUse" color-interpolation-filters="sRGB">
<feFlood flood-opacity="0" result="BackgroundImageFix"/>
<feColorMatrix in="SourceAlpha" type="matrix" values="0 0 0 0 0 0 0 0 0 0 0 0 0 0 0 0 0 0 127 0" result="hardAlpha"/>
<feOffset dx="-3" dy="10"/>
<feGaussianBlur stdDeviation="25"/>
<feColorMatrix type="matrix" values="0 0 0 0 0.0862745 0 0 0 0 0.0862745 0 0 0 0 0.113725 0 0 0 0.2 0"/>
<feBlend mode="normal" in2="BackgroundImageFix" result="effect1_dropShadow_354_1237"/>
<feBlend mode="normal" in="SourceGraphic" in2="effect1_dropShadow_354_1237" result="shape"/>
</filter>
<filter id="filter2_d_354_1237" x="56.3323" y="56.3325" width="156.333" height="156.333" filterUnits="userSpaceOnUse" color-interpolation-filters="sRGB">
<feFlood flood-opacity="0" result="BackgroundImageFix"/>
<feColorMatrix in="SourceAlpha" type="matrix" values="0 0 0 0 0 0 0 0 0 0 0 0 0 0 0 0 0 0 127 0" result="hardAlpha"/>
<feOffset dx="-3" dy="10"/>
<feGaussianBlur stdDeviation="25"/>
<feColorMatrix type="matrix" values="0 0 0 0 0.0862745 0 0 0 0 0.0862745 0 0 0 0 0.113725 0 0 0 0.2 0"/>
<feBlend mode="normal" in2="BackgroundImageFix" result="effect1_dropShadow_354_1237"/>
<feBlend mode="normal" in="SourceGraphic" in2="effect1_dropShadow_354_1237" result="shape"/>
</filter>
<filter id="filter3_d_354_1237" x="0.00219727" y="0" width="268.998" height="164.916" filterUnits="userSpaceOnUse" color-interpolation-filters="sRGB">
<feFlood flood-opacity="0" result="BackgroundImageFix"/>
<feColorMatrix in="SourceAlpha" type="matrix" values="0 0 0 0 0 0 0 0 0 0 0 0 0 0 0 0 0 0 127 0" result="hardAlpha"/>
<feOffset dx="-3" dy="10"/>
<feGaussianBlur stdDeviation="25"/>
<feColorMatrix type="matrix" values="0 0 0 0 0.0862745 0 0 0 0 0.0862745 0 0 0 0 0.113725 0 0 0 0.15 0"/>
<feBlend mode="normal" in2="BackgroundImageFix" result="effect1_dropShadow_354_1237"/>
<feBlend mode="normal" in="SourceGraphic" in2="effect1_dropShadow_354_1237" result="shape"/>
</filter>
<linearGradient id="paint0_linear_354_1237" x1="53.0022" y1="72.4597" x2="221.997" y2="72.4597" gradientUnits="userSpaceOnUse">
<stop stop-color="#FF7F34"/>
<stop offset="1" stop-color="#FAAF3D"/>
</linearGradient>
</defs>
</svg>
