<svg width="33" height="32" viewBox="0 0 33 32" fill="none" xmlns="http://www.w3.org/2000/svg">
<path d="M3.73258 31.0778C3.27961 31.078 2.8365 30.9455 2.45814 30.6965C2.07978 30.4476 1.78279 30.0932 1.60393 29.6773C1.42506 29.2614 1.3722 28.8022 1.45187 28.3565C1.53154 27.9108 1.74025 27.4983 2.05216 27.17L27.1924 0.721655C27.6152 0.276232 28.1978 0.016919 28.812 0.000798885C29.4261 -0.0153212 30.0215 0.213069 30.4672 0.635695C30.9129 1.05832 31.1723 1.64061 31.1884 2.25441C31.2046 2.86822 30.9761 3.4633 30.5532 3.90873L5.41301 30.3571C5.19629 30.5846 4.93561 30.7658 4.64676 30.8897C4.35791 31.0136 4.04691 31.0775 3.73258 31.0778Z" fill="#FF7F34"/>
<path d="M2.31681 19.2485C1.86384 19.2488 1.42073 19.1162 1.04237 18.8673C0.664014 18.6184 0.367017 18.264 0.188156 17.8481C0.00929519 17.4321 -0.0435727 16.9729 0.0360981 16.5273C0.115769 16.0816 0.324479 15.6691 0.636386 15.3408L13.2065 2.11659C13.4159 1.89604 13.6667 1.71886 13.9446 1.59518C14.2225 1.4715 14.522 1.4038 14.8261 1.39582C15.1302 1.38784 15.4329 1.43976 15.7169 1.54869C16.0009 1.65762 16.2607 1.82137 16.4813 2.03063C16.702 2.2399 16.8793 2.49054 17.003 2.76828C17.1268 3.04601 17.1946 3.34543 17.2026 3.64935C17.2106 3.95328 17.1586 4.25578 17.0496 4.53963C16.9406 4.82347 16.7767 5.08311 16.5673 5.30367L3.99723 18.5278C3.78028 18.7551 3.51956 18.936 3.23077 19.0599C2.94197 19.1838 2.63108 19.2479 2.31681 19.2485Z" fill="#FF7F34"/>
<path d="M17.7119 29.7156C17.1143 29.7123 16.5419 29.4749 16.1175 29.0544C15.8969 28.8457 15.7197 28.5957 15.596 28.3185C15.4722 28.0413 15.4044 27.7425 15.3964 27.439C15.3884 27.1356 15.4404 26.8336 15.5494 26.5503C15.6584 26.267 15.8222 26.008 16.0315 25.7881L28.6016 12.5639C29.0244 12.1185 29.607 11.8592 30.2212 11.8431C30.5253 11.8351 30.828 11.8871 31.112 11.996C31.396 12.105 31.6558 12.2687 31.8764 12.478C32.0971 12.6872 32.2744 12.9379 32.3981 13.2156C32.5219 13.4934 32.5897 13.7928 32.5977 14.0967C32.6057 14.4006 32.5537 14.7031 32.4447 14.987C32.3357 15.2708 32.1718 15.5304 31.9624 15.7509L19.3923 28.975C19.1771 29.2059 18.9171 29.3906 18.6282 29.5179C18.3394 29.6452 18.0276 29.7124 17.7119 29.7156Z" fill="#FF7F34"/>
</svg>
