<svg width="32" height="31" viewBox="0 0 32 31" xmlns="http://www.w3.org/2000/svg">
<path d="M3.44403 30.2534C3.60188 30.254 3.75822 30.2226 3.90368 30.1613C4.04912 30.0999 4.18068 30.0099 4.29047 29.8965L4.29142 29.8955L30.0265 2.82127L30.0266 2.82124C30.1322 2.71009 30.2148 2.57926 30.2699 2.43613C30.3249 2.29302 30.3512 2.14046 30.3472 1.9872C30.3432 1.83394 30.3091 1.68291 30.2467 1.54283C30.1844 1.40274 30.095 1.27635 29.9838 1.17081C29.8726 1.06525 29.7416 0.982624 29.5985 0.927648C29.4553 0.872671 29.3027 0.846425 29.1494 0.850391C28.9961 0.854357 28.845 0.888474 28.7049 0.950776C28.5648 1.01308 28.4383 1.10239 28.3327 1.21353C28.3327 1.21354 28.3327 1.21355 28.3327 1.21356L2.59759 28.2877L2.5973 28.288C2.44093 28.4535 2.33644 28.661 2.29677 28.8852C2.25711 29.1094 2.284 29.3402 2.37411 29.5493C2.46423 29.7583 2.61362 29.9364 2.80383 30.0615C2.99393 30.1866 3.21648 30.2533 3.44403 30.2534ZM3.44403 30.2534L3.44451 30.1035L3.44446 30.2534C3.44432 30.2534 3.44417 30.2534 3.44403 30.2534Z" stroke-width="0.3"/>
<path d="M1.99523 17.9675L1.99366 18.1175C2.1566 18.1192 2.31807 18.0869 2.46779 18.0227C2.61729 17.9587 2.75186 17.8643 2.86292 17.7455C2.86308 17.7453 2.86324 17.7451 2.8634 17.7449L15.73 4.20884L15.73 4.20887L15.7324 4.20623C15.9372 3.98033 16.0452 3.6832 16.0334 3.37861C16.0215 3.07401 15.8907 2.78621 15.6691 2.57688C15.4474 2.36755 15.1526 2.25334 14.8477 2.25875C14.5428 2.26416 14.2522 2.38874 14.0381 2.6058L14.0381 2.60579L14.0362 2.60779L1.16863 16.1449L1.16833 16.1452C0.956067 16.3698 0.841721 16.6695 0.850467 16.9783C0.859203 17.2868 0.990007 17.5792 1.21413 17.7914C1.42283 17.9944 1.7007 18.1109 1.99186 18.1174L1.99523 17.9675Z" stroke-width="0.3"/>
<path d="M17.742 28.8523C17.8994 28.8526 18.0552 28.8213 18.2003 28.7601C18.3457 28.6987 18.4773 28.6087 18.5871 28.4953L18.588 28.4943L31.4556 14.9572L31.3468 14.8539L31.4556 14.9572C31.5612 14.846 31.6439 14.7151 31.6989 14.572C31.7539 14.4289 31.7802 14.2764 31.7762 14.1231C31.7722 13.9698 31.7381 13.8189 31.6758 13.6788C31.6134 13.5387 31.5241 13.4123 31.4128 13.3068C31.3016 13.2012 31.1707 13.1186 31.0275 13.0636C30.8843 13.0087 30.7317 12.9824 30.5784 12.9864C30.2688 12.9944 29.975 13.1249 29.7617 13.3494C29.7617 13.3494 29.7617 13.3494 29.7617 13.3495L16.8955 26.8851C16.8953 26.8853 16.895 26.8856 16.8948 26.8858C16.735 27.05 16.6274 27.2578 16.5857 27.483C16.5439 27.7086 16.5701 27.9416 16.6609 28.1523C16.7517 28.363 16.9031 28.542 17.0958 28.6666C17.2882 28.791 17.513 28.8556 17.742 28.8523ZM17.742 28.8523C17.7416 28.8523 17.7411 28.8523 17.7406 28.8523L17.7411 28.7023L17.7434 28.8523C17.743 28.8523 17.7425 28.8523 17.742 28.8523Z" stroke-width="0.3"/>
</svg>
