<svg width="30" height="30" viewBox="0 0 30 30" fill="none" xmlns="http://www.w3.org/2000/svg">
<path d="M13.3986 19.9499C16.5819 19.9499 19.1624 17.3708 19.1624 14.1893C19.1624 11.0078 16.5819 8.42871 13.3986 8.42871C10.2153 8.42871 7.63469 11.0078 7.63469 14.1893C7.63469 17.3708 10.2153 19.9499 13.3986 19.9499Z" fill="#FF7F34"/>
<path d="M28.6036 27.1071L23.8702 22.3764C25.9738 19.701 26.9764 16.3241 26.6733 12.935C26.3701 9.54591 24.7841 6.40028 22.2391 4.14024C19.694 1.8802 16.3818 0.676193 12.9787 0.774089C9.57557 0.871985 6.33815 2.26437 3.92737 4.66697C1.51659 7.06957 0.114258 10.3012 0.00667938 13.7022C-0.100899 17.1031 1.09439 20.4168 3.3485 22.9668C5.60262 25.5168 8.74559 27.1107 12.1357 27.4232C15.5259 27.7358 18.9076 26.7433 21.5904 24.6485L26.3238 29.3792C26.4721 29.5331 26.6496 29.656 26.8459 29.7406C27.0422 29.8252 27.2534 29.8698 27.4672 29.8719C27.681 29.8741 27.893 29.8337 28.091 29.7531C28.289 29.6724 28.4689 29.5533 28.6203 29.4024C28.7716 29.2515 28.8914 29.072 28.9727 28.8744C29.0539 28.6768 29.0949 28.4649 29.0934 28.2513C29.0918 28.0376 29.0477 27.8265 28.9636 27.63C28.8796 27.4336 28.7572 27.2558 28.6036 27.1071ZM3.31987 14.1893C3.31859 12.1952 3.90916 10.2456 5.01684 8.58704C6.12453 6.9285 7.69955 5.63557 9.54263 4.87188C11.3857 4.1082 13.414 3.90804 15.371 4.29675C17.3279 4.68547 19.1255 5.64562 20.5363 7.05565C21.9471 8.46567 22.9078 10.2622 23.2967 12.2181C23.6857 14.1739 23.4854 16.201 22.7213 18.043C21.9571 19.8851 20.6635 21.4592 19.004 22.5663C17.3446 23.6733 15.3938 24.2636 13.3986 24.2623C10.7266 24.2589 8.16501 23.1966 6.27562 21.3082C4.38624 19.4199 3.32327 16.8598 3.31987 14.1893Z" fill="#FF7F34"/>
</svg>
