<svg width="30" height="30" viewBox="0 0 30 30" xmlns="http://www.w3.org/2000/svg">
<path d="M28.8207 27.3752L23.4147 21.9717C25.6569 19.3602 26.7996 15.9821 26.6031 12.5464C26.4065 9.11074 24.8859 5.88477 22.3604 3.54582C19.835 1.20688 16.5012 -0.0631102 13.0589 0.00241513C9.61663 0.0679404 6.33362 1.46396 3.89912 3.89731C1.46462 6.33067 0.0679724 9.61208 0.00241621 13.0527C-0.06314 16.4934 1.20748 19.8257 3.54753 22.3499C5.88757 24.8741 9.11503 26.394 12.5523 26.5905C15.9896 26.787 19.3694 25.6448 21.9821 23.4036L27.3881 28.8071C27.5782 28.9969 27.8358 29.1035 28.1044 29.1035C28.373 29.1035 28.6307 28.9969 28.8207 28.8071C28.9155 28.7135 28.9908 28.602 29.0422 28.4791C29.0935 28.3562 29.12 28.2244 29.12 28.0912C29.12 27.958 29.0935 27.8261 29.0422 27.7032C28.9908 27.5803 28.9155 27.4688 28.8207 27.3752ZM2.09458 13.3397C2.09592 11.1157 2.75694 8.94203 3.99406 7.09352C5.23119 5.24501 6.98887 3.80464 9.0449 2.95449C11.1009 2.10434 13.363 1.88261 15.5451 2.31731C17.7272 2.752 19.7314 3.82354 21.3042 5.3966C22.8771 6.96966 23.948 8.97355 24.3816 11.1549C24.8151 13.3362 24.5919 15.5971 23.7402 17.6516C22.8884 19.7062 21.4463 21.4622 19.5961 22.6976C17.746 23.933 15.5709 24.5924 13.3459 24.5924C10.3624 24.587 7.50263 23.3996 5.39356 21.2902C3.2845 19.1809 2.09816 16.3218 2.09458 13.3397Z"/>
</svg>
