<svg width="42" height="29" viewBox="0 0 42 29" fill="none" xmlns="http://www.w3.org/2000/svg">
<path d="M36.8837 12.9232C35.6795 17.3618 34.4662 21.8026 33.2441 26.2455C33.0578 27.0498 32.5863 27.7653 31.9115 28.2678C31.2367 28.7703 30.4013 29.0279 29.5507 28.9958H11.5C10.6253 29.037 9.76411 28.7749 9.07114 28.2565C8.37816 27.7381 7.89883 26.9974 7.71929 26.1675L4.11319 12.8907C3.96868 12.5074 3.96236 12.0881 4.09526 11.7009C4.22816 11.3137 4.49245 10.9814 4.84515 10.7581C5.13831 10.5526 5.49056 10.4412 5.85244 10.4395C6.32925 10.4567 6.78798 10.6207 7.16193 10.9076L12.6483 14.8087C13.0544 15.1291 13.5555 15.3159 14.0787 15.3419C14.4678 15.3152 14.8401 15.1774 15.1485 14.9459C15.4568 14.7145 15.6874 14.3998 15.8112 14.0415C16.8051 12.0585 17.8258 10.0624 18.7995 8.07933C18.9478 7.76462 19.1845 7.49655 19.4825 7.30573C19.7805 7.1149 20.1279 7.00898 20.485 7C20.8027 7.00092 21.114 7.0864 21.3849 7.24707C21.7651 7.48401 22.0715 7.81664 22.2713 8.20933C23.2786 10.1599 24.2456 12.1104 25.226 14.061C25.3552 14.409 25.5869 14.7127 25.8924 14.9345C26.198 15.1564 26.5639 15.2867 26.9451 15.3094C27.4502 15.2871 27.9348 15.1094 28.3285 14.8022C30.2087 13.5018 32.0823 12.13 33.976 10.8166C34.3192 10.5673 34.7356 10.4307 35.1646 10.4265C35.6009 10.4272 36.0227 10.5779 36.3548 10.8518C36.6869 11.1257 36.9077 11.505 36.9778 11.9219C37.0267 12.2582 36.9946 12.6009 36.8837 12.9232Z" fill="#FF7F34"/>
<path d="M23 2.50962C22.993 3.1747 22.7179 3.81005 22.2348 4.27671C21.7517 4.74336 21.1 5.00342 20.422 4.99997C19.7685 4.96735 19.1528 4.6897 18.7021 4.22444C18.2514 3.75917 18 3.14186 18 2.49998C18 1.85811 18.2514 1.24071 18.7021 0.775451C19.1528 0.310188 19.7685 0.0326178 20.422 0C21.1018 0.00166657 21.7535 0.265988 22.2361 0.735735C22.7186 1.20548 22.9931 1.84275 23 2.50962Z" fill="#FF7F34"/>
<path d="M41.9995 7.52494C41.999 7.85159 41.9336 8.17485 41.8072 8.47577C41.6807 8.7767 41.4957 9.04928 41.2631 9.27742C40.9128 9.62354 40.4689 9.85855 39.9867 9.95324C39.5046 10.0479 39.0053 9.99811 38.5511 9.81C38.0968 9.62189 37.7076 9.30379 37.4319 8.89522C37.1561 8.48664 37.0059 8.00559 37 7.51195C36.9991 7.18076 37.0636 6.85269 37.1898 6.5467C37.3159 6.24071 37.5011 5.96295 37.7348 5.72937C37.9685 5.49578 38.2459 5.31101 38.5511 5.18586C38.8562 5.0607 39.1831 4.99757 39.5126 5.00014C39.8424 4.99659 40.1695 5.05966 40.4745 5.18562C40.7795 5.31157 41.0562 5.4979 41.2882 5.73341C41.5201 5.96892 41.7026 6.24883 41.8248 6.5566C41.947 6.86437 42.0064 7.19366 41.9995 7.52494Z" fill="#FF7F34"/>
<path d="M4.99945 7.50657C5.00379 7.83411 4.94245 8.15917 4.81903 8.46279C4.6956 8.76641 4.51256 9.04244 4.28065 9.27467C4.04874 9.5069 3.77262 9.69062 3.46849 9.81516C3.16435 9.9397 2.83832 10.0025 2.5095 9.99992C1.84394 9.99992 1.20565 9.73651 0.735025 9.2677C0.264403 8.79888 0 8.16308 0 7.50007C0 6.83707 0.264403 6.20118 0.735025 5.73237C1.20565 5.26355 1.84394 5.00014 2.5095 5.00014C2.83968 4.99659 3.16721 5.05924 3.47262 5.18427C3.77804 5.3093 4.05513 5.49421 4.2874 5.72801C4.51966 5.96181 4.70238 6.23967 4.8247 6.5452C4.94702 6.85073 5.00645 7.17771 4.99945 7.50657Z" fill="#FF7F34"/>
</svg>
