<svg width="41" height="30" viewBox="0 0 41 30" xmlns="http://www.w3.org/2000/svg">
<path d="M36.46 11.948C36.3895 11.5252 36.1714 11.1411 35.8444 10.8638C35.5173 10.5866 35.1025 10.4342 34.6737 10.4338C34.2518 10.4361 33.8416 10.5729 33.5027 10.824C31.637 12.1464 29.7912 13.5283 27.9388 14.8837C27.5505 15.1946 27.0729 15.373 26.5759 15.3929C26.2011 15.3703 25.8411 15.2388 25.5402 15.0144C25.2393 14.79 25.0106 14.4827 24.8822 14.13C23.9163 12.1464 22.9636 10.1628 21.9713 8.17914C21.7707 7.78232 21.4696 7.44487 21.098 7.20048C20.8299 7.03981 20.524 6.95311 20.2114 6.94922C19.8592 6.96047 19.5172 7.0698 19.2238 7.26489C18.9304 7.45999 18.6973 7.73312 18.5509 8.05347C17.5585 10.0371 16.5661 12.0935 15.6068 14.1168C15.4804 14.4784 15.252 14.7956 14.9491 15.0303C14.6462 15.265 14.2818 15.407 13.8999 15.4392C13.3851 15.4156 12.8913 15.2278 12.4908 14.9036L7.07902 10.9363C6.71394 10.6423 6.26404 10.4731 5.79555 10.4537C5.43951 10.4584 5.09337 10.5714 4.80317 10.7776C4.45478 11.0039 4.19365 11.3417 4.06262 11.7358C3.9316 12.1299 3.93845 12.5568 4.08205 12.9464C5.2729 17.4515 6.46153 21.9521 7.64797 26.4484C7.82361 27.2929 8.2955 28.0469 8.97851 28.5744C9.66151 29.1018 10.5107 29.3679 11.3727 29.3246H29.1561C29.9947 29.3599 30.819 29.099 31.4844 28.5875C32.1497 28.0761 32.6137 27.3468 32.7948 26.5277C33.9989 22.0183 35.1941 17.5043 36.3806 12.9861C36.4872 12.6509 36.5144 12.2955 36.46 11.948ZM30.8762 25.9855C30.8052 26.3801 30.5897 26.7342 30.2716 26.9787C29.9536 27.2231 29.5559 27.3405 29.1561 27.3079H11.3727C10.9503 27.3502 10.5277 27.2292 10.1917 26.9697C9.85583 26.7102 9.63211 26.332 9.56656 25.9127C8.46833 21.7427 7.36569 17.5749 6.25864 13.4092C6.24197 13.3505 6.24423 13.288 6.26508 13.2306C6.28593 13.1732 6.32434 13.1238 6.37484 13.0895C6.42533 13.0551 6.48537 13.0375 6.54645 13.0391C6.60753 13.0407 6.66654 13.0615 6.71514 13.0985L11.3132 16.4574C12.0512 17.0345 12.9565 17.357 13.8933 17.3765C14.6475 17.3544 15.379 17.114 15.9991 16.6844C16.6192 16.2548 17.1012 15.6546 17.3865 14.9565L18.2267 13.2176C18.8045 12.0274 19.3823 10.8372 19.9601 9.64701C19.9851 9.59844 20.023 9.55768 20.0697 9.52924C20.1164 9.5008 20.17 9.48574 20.2247 9.48574C20.2794 9.48574 20.333 9.5008 20.3796 9.52924C20.4263 9.55768 20.4643 9.59844 20.4893 9.64701C21.0583 10.7909 21.6206 11.9546 22.1697 13.0853C22.4741 13.7465 22.785 14.3614 23.096 14.9962C23.3818 15.6867 23.8622 16.2794 24.4789 16.702C25.0955 17.1246 25.8218 17.3589 26.5693 17.3765C27.487 17.3539 28.374 17.0414 29.1031 16.4839L31.0879 15.0293L33.7342 13.0919C33.7828 13.0549 33.8419 13.0341 33.9029 13.0325C33.964 13.0309 34.024 13.0485 34.0745 13.0828C34.125 13.1172 34.1634 13.1666 34.1843 13.224C34.2051 13.2814 34.2074 13.3439 34.1907 13.4026C33.0396 17.8592 31.8818 22.243 30.8762 25.9855Z" />
<path d="M22.7983 2.5654C22.7913 3.24527 22.5153 3.89474 22.0305 4.37177C21.5458 4.8488 20.8918 5.11464 20.2115 5.11111C19.5558 5.07777 18.938 4.79395 18.4857 4.31834C18.0335 3.84274 17.7812 3.2117 17.7812 2.55556C17.7812 1.89941 18.0335 1.26829 18.4857 0.792689C18.938 0.317083 19.5558 0.0333428 20.2115 0C20.8936 0.00170361 21.5476 0.2719 22.0317 0.75209C22.5159 1.23228 22.7913 1.88372 22.7983 2.5654Z" />
<path d="M40.4825 7.29296C40.482 7.62573 40.4151 7.95504 40.2855 8.26161C40.156 8.56817 39.9666 8.84586 39.7283 9.07827C39.3694 9.43088 38.9148 9.67029 38.421 9.76676C37.9271 9.86323 37.4157 9.81246 36.9505 9.62083C36.4852 9.4292 36.0866 9.10514 35.8041 8.68891C35.5217 8.27267 35.3679 7.78262 35.3618 7.27972C35.3609 6.94232 35.427 6.6081 35.5562 6.29638C35.6854 5.98466 35.8751 5.7017 36.1144 5.46374C36.3538 5.22578 36.6379 5.03754 36.9505 4.91004C37.263 4.78254 37.5978 4.71822 37.9354 4.72085C38.2731 4.71723 38.6081 4.78149 38.9205 4.9098C39.2329 5.03811 39.5163 5.22793 39.7539 5.46786C39.9915 5.70778 40.1785 5.99294 40.3036 6.30647C40.4288 6.62001 40.4896 6.95547 40.4825 7.29296Z"/>
<path d="M5.07437 7.2732C5.07879 7.60674 5.01653 7.93776 4.89125 8.24694C4.76597 8.55612 4.58019 8.83722 4.34481 9.0737C4.10942 9.31018 3.82916 9.49727 3.52047 9.62409C3.21178 9.75091 2.88086 9.81491 2.54711 9.81224C1.87158 9.81224 1.22372 9.544 0.746041 9.0666C0.268366 8.58919 0 7.94174 0 7.26658C0 6.59143 0.268366 5.94389 0.746041 5.46649C1.22372 4.98908 1.87158 4.72085 2.54711 4.72085C2.88224 4.71723 3.21467 4.78103 3.52467 4.90835C3.83467 5.03567 4.1159 5.22397 4.35165 5.46205C4.5874 5.70013 4.77285 5.98308 4.897 6.29422C5.02116 6.60535 5.08149 6.93832 5.07437 7.2732Z" />
</svg>
