<svg width="36" height="33" viewBox="0 0 36 33" fill="none" xmlns="http://www.w3.org/2000/svg">
<path d="M27.4586 0H12.0558C9.91292 0.00228273 7.8491 0.797107 6.27315 2.22702C4.69719 3.65694 3.72408 5.61767 3.54658 7.72073C2.45875 8.41505 1.56445 9.36623 0.945046 10.4877C0.325637 11.6092 0.00076759 12.8653 1.80702e-06 14.142V20.6202C-0.00108486 22.191 0.487962 23.7242 1.40092 25.0121C2.31388 26.3001 3.60667 27.2807 5.10425 27.8211V32.0491C5.10478 32.2378 5.16187 32.422 5.26837 32.5787C5.37487 32.7355 5.52603 32.8578 5.70285 32.9303C5.82 32.9747 5.94422 32.9983 6.06974 33C6.19665 33.0009 6.32245 32.9767 6.43966 32.9288C6.55687 32.8809 6.6631 32.8102 6.75202 32.721L11.2577 28.2838H21.6142C23.3273 28.2831 24.9923 27.7261 26.3515 26.6991L28.6751 28.9875C28.764 29.0767 28.8703 29.1473 28.9875 29.1952C29.1047 29.2431 29.2305 29.2673 29.3574 29.2664C29.483 29.2654 29.6073 29.2418 29.7243 29.1967C29.9011 29.1242 30.0523 29.002 30.1588 28.8452C30.2653 28.6885 30.3224 28.5042 30.3229 28.3156V23.5678C31.9849 22.9852 33.4229 21.9101 34.4394 20.4902C35.4559 19.0703 36.0011 17.3752 36 15.6379V8.42433C36.0008 7.31886 35.7806 6.22408 35.3518 5.20245C34.923 4.18082 34.2941 3.25234 33.5009 2.47007C32.7078 1.6878 31.766 1.06706 30.7292 0.643246C29.6925 0.219434 28.5811 0.000832113 27.4586 0ZM21.6142 26.4012H10.8586C10.7322 26.4002 10.6069 26.4237 10.4898 26.4705C10.3727 26.5173 10.2662 26.5864 10.1763 26.6738L7.47936 29.3298C7.44374 29.3667 7.39762 29.3922 7.34705 29.403C7.29648 29.4137 7.24379 29.4093 7.19586 29.3901C7.14792 29.371 7.10697 29.338 7.07831 29.2956C7.04966 29.2531 7.03465 29.2033 7.03524 29.1523V27.1429C7.03541 26.932 6.96483 26.7269 6.83446 26.5595C6.7041 26.3922 6.52123 26.2719 6.31432 26.2175C5.05888 25.8982 3.94689 25.1769 3.15335 24.1671C2.35981 23.1572 1.9298 21.9162 1.93099 20.6393V14.161C1.92817 12.6996 2.49495 11.2928 3.51441 10.2309V15.6252C3.51441 17.8561 4.4143 19.9957 6.01612 21.5731C7.61794 23.1506 9.79047 24.0369 12.0558 24.0369H23.6417L24.9805 25.3553C23.9962 26.0403 22.8194 26.406 21.6142 26.4012Z" fill="#FF7F34"/>
</svg>
