<svg width="36" height="34" viewBox="0 0 36 34" xmlns="http://www.w3.org/2000/svg">
<path d="M26.9705 0H11.8478C9.74003 0.00857808 7.71196 0.814592 6.16361 2.25902C4.61526 3.70344 3.65903 5.68139 3.48353 7.80281C2.4127 8.49821 1.53236 9.45457 0.923592 10.5838C0.314824 11.7131 -0.00278493 12.9789 1.83974e-05 14.2647V20.7969C-0.000143997 22.3789 0.480544 23.9229 1.37715 25.2201C2.27376 26.5174 3.54306 27.5054 5.01351 28.0506V32.3032C5.01319 32.4934 5.06893 32.6794 5.17364 32.8374C5.27836 32.9955 5.42729 33.1185 5.60146 33.1908C5.71546 33.2392 5.83819 33.2631 5.96183 33.261C6.21223 33.2618 6.4529 33.1632 6.63198 32.9865L11.0575 28.5168H21.2299C22.9133 28.5208 24.5503 27.9592 25.883 26.9204L28.159 29.2191C28.2468 29.3084 28.3512 29.3792 28.4662 29.4274C28.5813 29.4756 28.7046 29.5003 28.8292 29.5C28.9549 29.5021 29.0796 29.4782 29.1959 29.4298C29.3689 29.3566 29.5164 29.2331 29.62 29.0752C29.7235 28.9172 29.7783 28.7317 29.7775 28.5422V23.7342C31.4126 23.1488 32.8277 22.0655 33.8276 20.6337C34.8274 19.2018 35.3629 17.4919 35.36 15.7398V8.4733C35.355 6.2276 34.4695 4.07527 32.8972 2.48732C31.325 0.899365 29.194 0.0050598 26.9705 0ZM21.2362 26.6012H10.6719C10.4204 26.6014 10.1794 26.7024 10.0017 26.8821L7.35272 29.5576C7.31619 29.5921 7.27054 29.6151 7.22129 29.624C7.17205 29.6329 7.1213 29.6273 7.07518 29.6077C7.02906 29.5881 6.98955 29.5555 6.96139 29.5138C6.93323 29.472 6.91764 29.4229 6.91649 29.3724V27.3418C6.91598 27.1293 6.8455 26.923 6.71616 26.7554C6.58683 26.5878 6.40598 26.4684 6.20208 26.416C4.97014 26.0932 3.87933 25.3661 3.10113 24.3489C2.32293 23.3318 1.90145 22.0823 1.90298 20.7969V14.2647C1.90437 12.7915 2.46037 11.374 3.45825 10.2995V15.7398C3.45993 17.9871 4.34416 20.142 5.91696 21.7317C7.48976 23.3214 9.62267 24.2161 11.8478 24.2195H23.2277L24.5427 25.5476C23.5776 26.2411 22.4207 26.6098 21.2362 26.6012ZM33.4697 15.7462C33.4766 17.2056 33.0017 18.6257 32.12 19.7821C31.2384 20.9385 30.0004 21.7652 28.6016 22.1315C28.3977 22.1839 28.2168 22.3033 28.0875 22.4709C27.9582 22.6385 27.8877 22.8448 27.8872 23.0573V25.6114C27.886 25.6619 27.8704 25.711 27.8423 25.7528C27.8141 25.7946 27.7746 25.8272 27.7285 25.8467C27.6823 25.8663 27.6316 25.872 27.5824 25.8631C27.5331 25.8542 27.4875 25.8311 27.4509 25.7966L26.5974 24.9346L24.2772 22.5912C24.0995 22.4115 23.8585 22.3104 23.6071 22.3102H11.8478C10.1246 22.3085 8.47247 21.6164 7.254 20.3858C6.03552 19.1551 5.35026 17.4865 5.34858 15.7462V8.51157C5.3517 8.46693 5.3517 8.42215 5.34858 8.3775C5.34858 6.67047 6.01999 5.03332 7.21512 3.82627C8.41024 2.61921 10.0312 1.94115 11.7213 1.94115H26.9578C28.6799 1.94284 30.3311 2.63403 31.5494 3.86329C32.7676 5.09255 33.4537 6.75959 33.457 8.49887L33.4697 15.7462Z"/>
</svg>
