<svg width="31" height="31" viewBox="0 0 31 31" fill="none" xmlns="http://www.w3.org/2000/svg">
<path d="M26.1179 0H10.3867C9.0903 0 7.84695 0.515003 6.93023 1.43173C6.0135 2.34845 5.4985 3.59184 5.4985 4.88828V5.50471H4.88207C3.58726 5.50471 2.34549 6.01906 1.42992 6.93463C0.514353 7.8502 0 9.09193 0 10.3867V26.1179C0 27.4127 0.514353 28.6545 1.42992 29.5701C2.34549 30.4857 3.58726 31 4.88207 31H20.6132C21.2546 31.0008 21.8898 30.8751 22.4825 30.63C23.0752 30.385 23.6137 30.0254 24.0672 29.5719C24.5207 29.1184 24.8803 28.5799 25.1254 27.9872C25.3704 27.3945 25.4961 26.7593 25.4953 26.1179V25.5015H26.1117C27.406 25.4999 28.6469 24.985 29.5621 24.0698C30.4773 23.1545 30.9922 21.9138 30.9938 20.6195V4.88828C30.9938 3.59397 30.4805 2.35246 29.5665 1.43609C28.6524 0.519721 27.4122 0.00326434 26.1179 0ZM23.6522 26.1179C23.6522 26.9223 23.3327 27.6937 22.7639 28.2625C22.1952 28.8312 21.4238 29.1507 20.6194 29.1507H4.88207C4.07822 29.1491 3.30778 28.8291 2.73937 28.2606C2.17096 27.6922 1.8509 26.9218 1.84927 26.1179V10.3867C1.8509 9.58289 2.17096 8.81249 2.73937 8.24408C3.30778 7.67567 4.07822 7.35561 4.88207 7.35398H5.4985V20.6195C5.50013 21.9148 6.01586 23.1565 6.93241 24.0719C7.84895 24.9873 9.09136 25.5015 10.3867 25.5015H23.646L23.6522 26.1179Z" fill="#FF7F34"/>
</svg>
