<svg width="32" height="32" viewBox="0 0 32 32" xmlns="http://www.w3.org/2000/svg">
<path d="M26.2917 0H10.4558C9.15185 -1.03601e-06 7.90117 0.517177 6.97853 1.43795C6.05588 2.35873 5.53672 3.60783 5.53508 4.91082V5.53087H4.91455C3.61056 5.53251 2.36054 6.05127 1.43906 6.97321C0.517575 7.89515 -1.03681e-06 9.1449 0 10.4479V26.2715C0.00164199 27.5734 0.519949 28.8216 1.44125 29.7422C2.36256 30.6628 3.61163 31.1807 4.91455 31.1823H20.7504C22.0538 31.1823 23.3038 30.6649 24.2255 29.744C25.1472 28.823 25.6649 27.5739 25.6649 26.2715V25.6514H26.2855C27.5895 25.6498 28.8395 25.131 29.761 24.2091C30.6824 23.2872 31.2 22.0375 31.2 20.7345V4.91082C31.1984 3.60997 30.6809 2.36276 29.761 1.44234C28.841 0.521922 27.5935 0.0032798 26.2917 0ZM23.8096 26.2715C23.8096 26.6721 23.7306 27.0688 23.5772 27.4389C23.4237 27.8091 23.1989 28.1454 22.9154 28.4286C22.6319 28.7119 22.2953 28.9366 21.9249 29.0899C21.5545 29.2433 21.1575 29.3222 20.7566 29.3222H4.91455C4.10535 29.3205 3.32979 28.9986 2.7576 28.4268C2.18541 27.8551 1.86322 27.0801 1.86158 26.2715V10.4479C1.86158 9.63824 2.18303 8.86164 2.7554 8.28854C3.32777 7.71545 4.10428 7.39266 4.91455 7.39102H5.53508V20.7345C5.53508 22.0386 6.05351 23.2892 6.97633 24.2113C7.89915 25.1334 9.15077 25.6514 10.4558 25.6514H23.8034L23.8096 26.2715ZM29.3509 20.7345C29.3509 21.5441 29.0294 22.3207 28.457 22.8938C27.8847 23.4669 27.1082 23.7897 26.2979 23.7913H10.4558C9.6445 23.7913 8.86639 23.4692 8.29268 22.896C7.71897 22.3227 7.39666 21.5452 7.39666 20.7345V4.91082C7.3983 4.10117 7.72134 3.32522 8.29487 2.75329C8.8684 2.18136 9.64557 1.86015 10.4558 1.86015H26.2917C27.1009 1.86179 27.8765 2.18373 28.4487 2.75548C29.0209 3.32723 29.343 4.10224 29.3446 4.91082L29.3509 20.7345Z"/>
</svg>
